<svg preserveAspectRatio="none" width="100%" height="100%" overflow="visible" style="display: block;" viewBox="0 0 18.3559 58.0001" fill="none" xmlns="http://www.w3.org/2000/svg">
<g id="Icon Container">
<path id="Vector" d="M11.9189 41.5846C10.3708 40.0484 9.00373 36.5822 10.0449 33.1669C12.9352 35.1248 12.9142 39.2924 11.9189 41.5846Z" fill="var(--fill-0, #352514)"/>
<path id="Vector_2" d="M10.4927 27.4595C11.719 27.9078 14.6656 30.8687 13.4892 35.3541C11.6418 33.6894 9.86592 30.5099 10.4927 27.4595Z" fill="var(--fill-0, #352514)"/>
<path id="Vector_3" d="M0 8.7738e-05C5.04826 1.77523 6.88443 4.41675 7.70676 8.55207C5.53506 7.88511 2.21756 4.26427 0 8.7738e-05Z" fill="var(--fill-0, #352514)"/>
<path id="Vector_4" d="M10.1868 21.9727C12.4969 22.0831 14.07 25.8362 13.9501 28.3334C11.9176 27.2526 9.99452 25.56 10.1868 21.9727Z" fill="var(--fill-0, #352514)"/>
<path id="Vector_5" d="M8.35271 17.3684C9.60793 17.1436 12.6486 18.2473 13.3334 21.996C11.4055 21.595 8.55628 20.0382 8.35271 17.3684Z" fill="var(--fill-0, #352514)"/>
<path id="Vector_6" d="M6.00313 12.3586C6.90593 12.1455 10.1245 12.8501 11.4634 16.6769C9.55075 16.6245 6.9534 15.9278 6.00313 12.3586Z" fill="var(--fill-0, #352514)"/>
<path id="Vector_7" d="M9.21283 11.872C7.48931 11.9883 4.00526 10.3119 3.24408 7.73777C4.86702 7.37947 7.99864 9.15183 9.21283 11.872Z" fill="var(--fill-0, #352514)"/>
<path id="Vector_8" d="M11.887 42.3783C12.9378 39.0207 15.8884 36.2829 17.8035 36.0656C17.5782 41.2457 13.8479 42.4817 11.887 42.3783Z" fill="var(--fill-0, #352514)"/>
<path id="Vector_9" d="M9.25119 47.2185C8.09332 45.3431 7.17444 41.5146 9.02509 39.6163C10.0776 40.3988 11.6731 43.427 9.25119 47.2185Z" fill="var(--fill-0, #352514)"/>
<path id="Vector_10" d="M8.82978 48.2945C9.93051 46.5923 12.9833 43.3589 15.8856 43.2838C14.2401 48.2924 9.95948 48.5819 8.82978 48.2945Z" fill="var(--fill-0, #352514)"/>
<path id="Vector_11" d="M5.70842 52.1088C4.89172 49.9984 4.59884 46.8032 6.9894 44.6072C7.81496 45.531 8.88672 48.7358 5.70842 52.1088Z" fill="var(--fill-0, #352514)"/>
<path id="Vector_12" d="M5.20404 53.0476C6.62502 51.5735 10.8888 48.3306 13.7114 48.9122C11.2436 54.1775 6.23719 53.5398 5.20404 53.0476Z" fill="var(--fill-0, #352514)"/>
<path id="Vector_13" d="M0.732998 56.7057C-0.0442759 53.8418 1.84017 51.2639 3.52507 49.6681C4.93881 52.137 3.22736 54.9894 0.732998 56.7057Z" fill="var(--fill-0, #352514)"/>
<path id="Vector_14" d="M8.34344 54.2014C4.45708 59.0982 1.53949 58.2948 0.922336 57.0695C2.57746 55.9037 6.58532 53.2319 8.34344 54.2014Z" fill="var(--fill-0, #352514)"/>
<path id="Vector_15" d="M17.6923 28.5726C20.0064 32.8644 15.6799 35.072 13.7158 36.2507C13.8872 34.9646 15.7096 29.6148 17.6923 28.5726Z" fill="var(--fill-0, #352514)"/>
<path id="Vector_16" d="M16.919 21.181C18.7946 24.6845 16.9246 28.0818 14.2508 29.5666C14.2082 27.3713 14.7368 22.8531 16.919 21.181Z" fill="var(--fill-0, #352514)"/>
<path id="Vector_17" d="M13.7665 22.8445C13.3835 21.0841 12.5708 18.0415 14.2284 15.3662C16.6656 18.0798 15.1754 21.7535 13.7665 22.8445Z" fill="var(--fill-0, #352514)"/>
<path id="Vector_18" d="M11.9897 17.3304C11.292 15.5827 10.6483 11.675 11.8706 10.2919C14.9797 13.5395 12.857 16.4252 11.9897 17.3304Z" fill="var(--fill-0, #352514)"/>
<path id="Vector_19" d="M10.0291 12.9546C9.16893 11.4894 7.27885 7.99107 8.14544 4.78719C11.8339 8.84004 10.569 12.1343 10.0291 12.9546Z" fill="var(--fill-0, #352514)"/>
</g>
</svg>
