<svg preserveAspectRatio="none" width="100%" height="100%" overflow="visible" style="display: block;" viewBox="0 0 18.3533 57.9996" fill="none" xmlns="http://www.w3.org/2000/svg">
<g id="Icon Container">
<path id="Vector" d="M6.43461 41.5846C7.98272 40.0484 9.34995 36.5823 8.30884 33.1669C5.41852 35.1248 5.43952 39.2924 6.43461 41.5846Z" fill="var(--fill-0, #352514)"/>
<path id="Vector_2" d="M7.86383 27.46C6.6383 27.9083 3.6915 30.8692 4.86763 35.3545C6.7153 33.6899 8.49137 30.5104 7.86383 27.46Z" fill="var(--fill-0, #352514)"/>
<path id="Vector_3" d="M18.3533 9.6405e-05C13.3053 1.77524 11.4684 4.4168 10.6466 8.55204C12.8185 7.88508 16.1354 4.26424 18.3533 9.6405e-05Z" fill="var(--fill-0, #352514)"/>
<path id="Vector_4" d="M8.16655 21.9727C5.85645 22.0831 4.28388 25.8362 4.40337 28.3334C6.43579 27.2526 8.35942 25.56 8.16655 21.9727Z" fill="var(--fill-0, #352514)"/>
<path id="Vector_5" d="M10.0015 17.3684C8.74653 17.1436 5.70566 18.2473 5.02116 21.9959C6.9489 21.595 9.79778 20.0382 10.0015 17.3684Z" fill="var(--fill-0, #352514)"/>
<path id="Vector_6" d="M12.3494 12.3592C11.4468 12.146 8.2286 12.8506 6.88969 16.6774C8.8023 16.6249 11.3992 15.9283 12.3494 12.3592Z" fill="var(--fill-0, #352514)"/>
<path id="Vector_7" d="M9.14385 11.8725C10.8677 11.9888 14.3515 10.3124 15.1127 7.73829C13.4901 7.37991 10.3586 9.15235 9.14385 11.8725Z" fill="var(--fill-0, #352514)"/>
<path id="Vector_8" d="M6.46946 42.3788C5.41805 39.0212 2.46771 36.2834 0.552606 36.0661C0.777581 41.2462 4.50842 42.4822 6.46946 42.3788Z" fill="var(--fill-0, #352514)"/>
<path id="Vector_9" d="M9.10316 47.2185C10.2609 45.3431 11.1799 41.5145 9.32926 39.6163C8.27656 40.3988 6.68106 43.427 9.10316 47.2185Z" fill="var(--fill-0, #352514)"/>
<path id="Vector_10" d="M9.52401 48.2945C8.42351 46.5924 5.3709 43.3589 2.46884 43.2838C4.11391 48.2924 8.39479 48.5819 9.52401 48.2945Z" fill="var(--fill-0, #352514)"/>
<path id="Vector_11" d="M12.6466 52.1088C13.4631 49.9984 13.7558 46.8032 11.3658 44.6072C10.5396 45.531 9.46833 48.7358 12.6466 52.1088Z" fill="var(--fill-0, #352514)"/>
<path id="Vector_12" d="M13.1505 53.0476C11.7301 51.5735 7.46621 48.3306 4.64348 48.9122C7.11105 54.1775 12.1179 53.5398 13.1505 53.0476Z" fill="var(--fill-0, #352514)"/>
<path id="Vector_13" d="M17.6229 56.7057C18.4001 53.8417 16.5156 51.2639 14.8309 49.6681C13.4172 52.137 15.129 54.9894 17.6229 56.7057Z" fill="var(--fill-0, #352514)"/>
<path id="Vector_14" d="M10.0105 54.2009C13.897 59.0978 16.8149 58.2943 17.432 57.069C15.777 55.9032 11.7685 53.2314 10.0105 54.2009Z" fill="var(--fill-0, #352514)"/>
<path id="Vector_15" d="M0.663844 28.5721C-1.65076 32.8639 2.67639 35.0715 4.64009 36.2502C4.46862 34.9641 2.64638 29.6143 0.663844 28.5721Z" fill="var(--fill-0, #352514)"/>
<path id="Vector_16" d="M1.435 21.1815C-0.440758 24.685 1.42969 28.0823 4.10348 29.5671C4.14572 27.3718 3.61692 22.8536 1.435 21.1815Z" fill="var(--fill-0, #352514)"/>
<path id="Vector_17" d="M4.58971 22.8446C4.97328 21.0841 5.78563 18.0416 4.12809 15.3662C1.69078 18.0798 3.1808 21.7536 4.58971 22.8446Z" fill="var(--fill-0, #352514)"/>
<path id="Vector_18" d="M6.36642 17.3303C7.0638 15.5827 7.70742 11.6751 6.48583 10.2919C3.37609 13.5395 5.49919 16.4252 6.36642 17.3303Z" fill="var(--fill-0, #352514)"/>
<path id="Vector_19" d="M8.32563 12.9546C9.18505 11.4894 11.0751 7.99108 10.2086 4.7872C6.52068 8.84005 7.78564 12.1343 8.32563 12.9546Z" fill="var(--fill-0, #352514)"/>
</g>
</svg>
