<svg preserveAspectRatio="none" width="100%" height="100%" overflow="visible" style="display: block;" viewBox="0 0 83 24" fill="none" xmlns="http://www.w3.org/2000/svg">
<g id="Stars">
<path id="Vector" d="M5.89608 6.38902C6.11952 5.87033 6.88051 5.87033 7.10395 6.38902L8.42265 9.45043C8.5169 9.66909 8.72988 9.8185 8.97436 9.83743L12.3973 10.1024C12.9772 10.1473 13.2124 10.8461 12.7705 11.2116L10.1626 13.3686C9.97637 13.5227 9.89497 13.7644 9.95189 13.9947L10.7486 17.2199C10.8836 17.7663 10.268 18.1983 9.77147 17.9055L6.84096 16.1771C6.63164 16.0537 6.36839 16.0537 6.15908 16.1771L3.22855 17.9055C2.73203 18.1983 2.11638 17.7663 2.25137 17.2199L3.04813 13.9947C3.10504 13.7644 3.02369 13.5227 2.83742 13.3686L0.229491 11.2116C-0.212367 10.8461 0.0227942 10.1473 0.602741 10.1024L4.02569 9.83743C4.27019 9.8185 4.48316 9.66909 4.57735 9.45043L5.89608 6.38902Z" fill="var(--fill-0, #A2704A)"/>
<path id="Vector_2" d="M23.3496 6.38902C23.5903 5.87033 24.4098 5.87033 24.6504 6.38902L26.0705 9.45043C26.172 9.66909 26.4014 9.8185 26.6647 9.83743L30.3509 10.1024C30.9755 10.1473 31.2287 10.8461 30.7529 11.2116L27.9444 13.3686C27.7438 13.5227 27.6561 13.7644 27.7174 13.9947L28.5755 17.2199C28.7208 17.7663 28.0578 18.1983 27.5231 17.9055L24.3672 16.1771C24.1418 16.0537 23.8583 16.0537 23.6329 16.1771L20.4769 17.9055C19.9422 18.1983 19.2792 17.7663 19.4245 17.2199L20.2826 13.9947C20.3439 13.7644 20.2563 13.5227 20.0557 13.3686L17.2471 11.2116C16.7713 10.8461 17.0245 10.1473 17.6491 10.1024L21.3354 9.83743C21.5987 9.8185 21.828 9.66909 21.9295 9.45043L23.3496 6.38902Z" fill="var(--fill-0, #A2704A)"/>
<path id="Vector_3" d="M40.8961 6.38902C41.1195 5.87033 41.8805 5.87033 42.1039 6.38902L43.4226 9.45043C43.5169 9.66909 43.7299 9.8185 43.9744 9.83743L47.3973 10.1024C47.9772 10.1473 48.2124 10.8461 47.7705 11.2116L45.1626 13.3686C44.9764 13.5227 44.895 13.7644 44.9519 13.9947L45.7486 17.2199C45.8836 17.7663 45.268 18.1983 44.7715 17.9055L41.841 16.1771C41.6316 16.0537 41.3684 16.0537 41.1591 16.1771L38.2286 17.9055C37.732 18.1983 37.1164 17.7663 37.2514 17.2199L38.0481 13.9947C38.105 13.7644 38.0237 13.5227 37.8374 13.3686L35.2295 11.2116C34.7876 10.8461 35.0228 10.1473 35.6027 10.1024L39.0257 9.83743C39.2702 9.8185 39.4832 9.66909 39.5774 9.45043L40.8961 6.38902Z" fill="var(--fill-0, #A2704A)"/>
<path id="Vector_4" d="M58.3496 6.38902C58.5903 5.87033 59.4098 5.87033 59.6504 6.38902L61.0705 9.45043C61.172 9.66909 61.4014 9.8185 61.6647 9.83743L65.3509 10.1024C65.9755 10.1473 66.2287 10.8461 65.7529 11.2116L62.9444 13.3686C62.7438 13.5227 62.6561 13.7644 62.7174 13.9947L63.5755 17.2199C63.7208 17.7663 63.0578 18.1983 62.5231 17.9055L59.3672 16.1771C59.1418 16.0537 58.8583 16.0537 58.6329 16.1771L55.4769 17.9055C54.9422 18.1983 54.2792 17.7663 54.4245 17.2199L55.2826 13.9947C55.3439 13.7644 55.2563 13.5227 55.0557 13.3686L52.2471 11.2116C51.7713 10.8461 52.0245 10.1473 52.6491 10.1024L56.3354 9.83743C56.5987 9.8185 56.828 9.66909 56.9295 9.45043L58.3496 6.38902Z" fill="var(--fill-0, #A2704A)"/>
<path id="Vector_5" d="M75.8961 6.38902C76.1195 5.87033 76.8805 5.87033 77.1039 6.38902L78.4226 9.45043C78.5169 9.66909 78.7299 9.8185 78.9744 9.83743L82.3973 10.1024C82.9772 10.1473 83.2124 10.8461 82.7705 11.2116L80.1626 13.3686C79.9764 13.5227 79.895 13.7644 79.9519 13.9947L80.7486 17.2199C80.8836 17.7663 80.268 18.1983 79.7715 17.9055L76.841 16.1771C76.6316 16.0537 76.3684 16.0537 76.1591 16.1771L73.2286 17.9055C72.732 18.1983 72.1164 17.7663 72.2514 17.2199L73.0481 13.9947C73.105 13.7644 73.0237 13.5227 72.8374 13.3686L70.2295 11.2116C69.7876 10.8461 70.0228 10.1473 70.6027 10.1024L74.0257 9.83743C74.2702 9.8185 74.4832 9.66909 74.5774 9.45043L75.8961 6.38902Z" fill="var(--fill-0, #A2704A)"/>
</g>
</svg>
