<svg width="28" height="28" viewBox="0 0 28 28" fill="none" xmlns="http://www.w3.org/2000/svg">
<path d="M22.7994 11.8001C22.7994 17.2925 16.7065 23.0125 14.6604 24.7792C14.4698 24.9225 14.2378 25 13.9993 25C13.7608 25 13.5288 24.9225 13.3382 24.7792C11.2922 23.0125 5.19922 17.2925 5.19922 11.8001C5.19922 9.46618 6.12637 7.22783 7.77671 5.57749C9.42705 3.92715 11.6654 3 13.9993 3C16.3333 3 18.5716 3.92715 20.2219 5.57749C21.8723 7.22783 22.7994 9.46618 22.7994 11.8001Z" stroke="#66451E" stroke-width="1.92502" stroke-linecap="round" stroke-linejoin="round"/>
<path d="M13.9993 15.1001C15.8218 15.1001 17.2993 13.6226 17.2993 11.8C17.2993 9.97748 15.8218 8.5 13.9993 8.5C12.1767 8.5 10.6992 9.97748 10.6992 11.8C10.6992 13.6226 12.1767 15.1001 13.9993 15.1001Z" stroke="#66451E" stroke-width="1.92502" stroke-linecap="round" stroke-linejoin="round"/>
</svg>
