<svg width="142" height="51" viewBox="0 0 142 51" fill="none" xmlns="http://www.w3.org/2000/svg">
<path d="M36.1281 41.9849C33.8397 42.2786 30.6996 41.8994 28.3855 41.8441C25.7895 41.782 23.6558 42.0868 21.0574 41.7124C15.5679 40.9213 11.1814 38.4379 7.88276 33.9515C5.5551 30.7856 4.35431 26.2827 4.46392 22.3634C4.51266 20.6207 4.93084 18.6305 5.01916 16.8605C5.13023 14.6344 4.91507 12.3726 5.26206 10.1606C5.28038 10.5287 5.22608 11.2091 5.31349 11.4722L5.42146 11.5186L5.57258 11.4564C5.75284 11.6593 5.58705 11.6212 5.72817 11.7126L5.79116 11.4572C6.0393 12.239 6.38912 14.4706 6.63896 15.5C7.57616 19.5163 9.2217 23.3336 11.4986 26.7731C15.7647 33.0487 21.9621 37.7627 29.1511 40.2003C31.6882 41.0761 33.5226 41.4636 36.1281 41.9849Z" fill="#F7EFE8"/>
<path d="M137.747 4.271C137.885 4.33331 137.934 4.46047 137.936 4.60367C137.98 9.04365 137.899 13.4862 137.948 17.9267C137.968 19.7424 138.698 19.081 139.2 19.5406C139.254 19.7819 139.234 20.0387 139.226 20.287C135.705 19.9391 131.8 21.3122 129.331 17.8807C127.099 15.2115 127.592 8.82635 131.978 8.60579C133.357 8.53636 134.36 9.20109 135.334 10.1067C135.329 9.43419 135.435 7.36772 134.927 6.76239C134.81 6.62404 134.219 6.68813 134.01 6.70435C133.977 6.35119 133.997 6.13639 134.024 5.78311C135.169 5.74145 136.177 5.49682 137.057 4.74234C137.258 4.56962 137.49 4.40615 137.725 4.28248L137.747 4.271ZM133.555 19.0329C134.156 19.2085 135.056 19.2094 135.164 18.4446C135.436 16.5294 135.339 14.1528 135.252 12.2282C135.206 11.2135 133.67 10.1301 132.655 10.2002C131.924 10.4807 131.207 10.9561 130.943 11.7137C130.067 14.2372 131.069 17.8892 133.555 19.0329Z" fill="#F7EFE8"/>
<path d="M29.3706 8.0166C29.5455 8.22919 29.4249 10.0274 29.3894 10.397C31.4797 8.26336 33.7865 7.62627 35.3735 10.6452C35.7331 10.137 36.1841 9.73751 36.6529 9.36491C37.3409 8.81833 38.4656 8.51427 39.3079 8.66359C42.8742 9.29576 41.9489 15.9177 43.596 18.349C43.6964 18.4972 43.9308 18.7235 44.1185 18.7404C44.2196 18.7495 44.3749 18.5988 44.4754 18.5227C44.6968 18.5109 44.7238 18.514 44.9137 18.6271C45.4701 19.3764 44.1391 20.2806 43.4257 20.2749C39.0574 20.2397 40.6653 12.8475 38.5231 10.5579C37.689 9.66648 36.2634 11.3516 35.7841 11.9374C36.0502 12.7191 36.4503 15.1799 36.6355 16.1424C36.7664 16.8685 37.1548 18.4403 37.933 18.7088C38.2135 18.686 38.1911 18.6471 38.4398 18.4719C38.604 18.6106 38.8314 18.771 38.8814 18.9854C39.0386 19.6592 37.9636 20.2009 37.4103 20.2347C32.8831 20.516 34.5285 12.669 32.2918 10.4419C31.5296 9.6829 29.8602 11.5893 29.484 12.168C29.4457 13.7714 29.3122 17.2504 29.6562 18.8585C29.7254 19.1821 30.4201 19.4009 30.7408 19.5103C30.7873 19.6222 30.8193 20.1966 30.713 20.2093C29.1305 20.3989 27.1199 20.1042 25.5585 20.3026C25.5457 19.9839 25.5276 19.7877 25.5912 19.4707C25.7495 19.3417 26.0078 19.3705 26.21 19.3347C26.3775 19.3051 26.4713 19.2282 26.5649 19.093C27.0943 18.3284 26.9881 12.8868 26.7882 11.8101C26.5551 10.5546 26.2762 11.1731 25.647 10.7412C25.5073 10.5556 25.5432 10.2429 25.5432 9.99798C27.7611 9.76626 27.9789 9.61957 29.3706 8.0166Z" fill="#F7EFE8"/>
<path d="M83.1046 25.2544C83.6385 25.2175 84.2452 25.2281 84.7853 25.2256L84.7902 31.5385C86.1131 31.4925 87.6475 31.5294 88.9885 31.5296L97.1729 31.5269C96.8997 31.0119 96.811 30.4457 96.8456 29.8653C96.8928 29.0601 97.2062 28.3645 97.8143 27.8278C98.4827 27.2373 99.4083 26.9719 100.291 27.0326C103.844 27.2764 102.945 30.7671 103.449 31.2841C103.856 31.7015 105.236 31.5385 105.8 31.5297C105.729 30.6007 105.762 29.0945 105.753 28.118C106.315 28.0902 106.96 28.0947 107.529 28.0865C107.515 29.2374 107.515 30.3884 107.528 31.5393C108.04 31.5233 108.617 31.5341 109.135 31.5334C109.102 30.3785 109.134 29.2048 109.099 28.0322C109.669 28.0088 110.267 28.0099 110.84 28.0024C110.856 28.574 110.822 29.3055 110.811 29.8885C110.82 30.4511 110.831 30.9773 110.797 31.5403C111.313 31.5284 111.855 31.5326 112.372 31.5293C112.273 30.6008 112.33 28.1435 112.324 27.1191C112.782 27.1734 113.599 27.1449 114.085 27.1418C114.05 28.484 113.988 31.8117 114.123 33.1065C110.831 32.8513 107.245 33.2267 103.929 33.0413C103.094 32.9946 102.841 32.9007 102.272 32.3045C101.935 32.5482 101.441 32.9134 101.038 32.9606C99.6329 33.1255 97.9696 33.0621 96.5503 33.0627L87.9082 33.0573C86.5493 33.0556 84.3333 32.9962 83.0492 33.1029C83.0471 32.2073 82.9653 25.4701 83.1046 25.2544ZM100.445 31.5156C100.687 31.4004 100.988 31.2681 101.21 31.1281C101.837 30.0003 101.764 29.2551 100.674 28.4923C100.343 28.4918 99.886 28.4791 99.5685 28.5089C98.4154 28.7508 98.1304 30.7763 98.9971 31.4563C99.1837 31.6029 100.157 31.5291 100.445 31.5156Z" fill="#F7EFE8"/>
<path d="M105.37 8.62224C106.014 8.54671 107.278 8.69458 107.916 8.96004C111.01 10.4546 110.174 15.2134 111.494 17.934C111.865 18.6967 112.072 18.8495 112.778 18.492L113.303 19.0023C112.692 20.0967 111.928 20.5046 110.651 20.1567C109.653 19.8846 109.02 18.8756 108.69 17.9649C108.613 17.7539 108.621 17.4291 108.535 17.2665C108.334 17.4058 108.152 18.0595 107.989 18.3093C107.029 19.779 106.07 20.1297 104.424 20.2493C102.045 20.158 100.491 18.7366 101.151 16.2094C101.787 13.7719 104.873 13.2302 106.085 11.2665C106.361 10.8194 106.442 10.0776 105.855 9.84831C104.585 9.29591 102.498 11.2797 102.012 12.3234C101.547 11.4236 101.312 10.4476 100.855 9.65505C102.874 8.92394 103.189 8.77198 105.37 8.62224ZM103.661 17.8099C103.816 17.9839 104.025 18.2393 104.206 18.3718C104.854 18.5855 105.26 18.6778 105.943 18.3688C106.768 17.9959 107.077 17.2171 107.426 16.4679C107.778 15.7143 107.905 12.3339 107.385 11.902C107.089 12.5273 106.96 12.8094 106.486 13.343C105.534 14.4141 103.987 15.2019 103.664 16.696C103.602 16.9808 103.644 17.5107 103.661 17.8099Z" fill="#F7EFE8"/>
<path d="M18.6934 5.78155C21.0722 5.69809 22.9458 6.46717 24.8381 7.83122C24.4654 8.78844 24.1044 9.75016 23.755 10.7161C23.3066 10.231 22.8173 9.41547 22.3328 8.85627C21.336 7.70559 20.4132 7.02409 18.8606 6.8703C18.1348 6.75511 16.6651 7.10204 16.1316 7.60761C12.9182 10.6525 19.9022 11.1416 21.516 11.7844C22.5162 12.1828 23.2451 12.5032 23.8565 13.2269C25.1994 14.8168 25.0085 17.6791 23.3499 18.9832C21.5231 20.4519 19.4775 20.2925 17.331 20.1415C15.6955 19.8643 14.112 19.0001 12.8611 17.9288C12.831 17.4515 12.8006 14.3519 12.872 13.9988C13.0126 13.9499 13.6656 13.8925 13.7179 14.0493C14.2214 15.5576 14.6333 16.7273 15.8912 17.8412C16.9914 18.8155 18.1772 19.2129 19.6489 19.1344C20.9982 19.0692 22.8572 18.2981 22.7291 16.6661C22.5145 13.975 18.7597 13.9779 16.7982 13.333C15.7865 13.0313 14.7484 12.6545 13.9366 11.9512C12.5359 10.738 12.5477 9.02202 13.7911 7.68702C15.1172 6.26326 16.834 5.87902 18.6934 5.78155Z" fill="#F7EFE8"/>
<path d="M63.3545 8.61852C65.6773 8.4843 67.5818 9.68953 68.3227 11.9291C68.5343 12.5688 68.5831 13.1668 68.6474 13.8303C66.5258 13.8724 64.3852 13.8042 62.2615 13.8387C61.6173 13.8491 60.9275 13.8547 60.2887 13.8135C60.5833 15.6942 61.3034 17.577 63.1736 18.4172C64.0257 18.8033 64.9971 18.8326 65.871 18.4983C67.017 18.0557 67.8737 17.0739 68.3641 15.9699C68.4767 15.7308 68.5039 15.6768 68.675 15.478C68.9099 15.3312 69.2251 15.3678 69.5095 15.3702C69.0226 17.838 67.2127 19.8758 64.6794 20.1882C56.7857 21.1616 55.1699 9.63347 63.3545 8.61852ZM60.3065 12.7479L63.5466 12.7404C64.3779 12.7416 65.2391 12.7305 66.0675 12.7447C65.3588 11.1253 64.8559 9.94778 62.9047 9.85555C61.1332 10.1302 60.6625 11.096 60.3065 12.7479Z" fill="#F7EFE8"/>
<path d="M117.779 7.80615C117.883 8.07543 117.79 10.0003 117.737 10.3608C118.478 9.60425 119.425 8.75554 120.491 8.64793C125.391 8.30465 123.832 15.7377 125.859 18.4408C125.995 18.5991 126.129 18.7023 126.346 18.6568C126.892 18.5418 126.963 18.6895 127.381 18.9965C126.687 20.1609 125.407 20.6818 124.283 19.9995C122.135 18.6968 122.035 13.8394 121.337 11.5887C120.573 9.08185 118.82 10.8294 117.882 12.0434C117.723 13.714 117.774 16.5477 117.904 18.2601C118.016 19.7433 118.755 19.2534 119.077 19.4899C119.234 19.6817 119.195 20.0156 119.195 20.2781C117.708 20.2136 115.386 20.3689 114.083 20.231C113.881 20.0694 113.839 19.9481 113.903 19.7036C114.089 19.4484 114.474 19.3294 114.745 19.1717C114.992 19.0285 115.078 18.8526 115.144 18.5848C115.333 17.8205 115.401 12.0173 115.054 11.3285C114.811 10.8449 114.121 10.9599 113.867 10.5417C113.824 10.3187 113.874 10.2462 113.97 10.0348C114.248 9.91621 114.909 9.91281 115.232 9.83105C116.624 9.47807 117.055 8.89177 117.779 7.80615Z" fill="#F7EFE8"/>
<path d="M88.5532 8.61892C90.3954 8.52371 91.7627 8.92138 93.406 9.65859C93.1085 10.6051 92.6058 11.575 92.3951 12.5025C92.1635 12.0812 91.9166 11.6624 91.6455 11.2647C91.0714 10.4225 90.3788 9.95067 89.3699 9.76607C88.418 9.592 87.2552 9.75741 86.4523 10.3217C86.1881 10.5076 85.9454 10.7548 85.8962 11.0874C85.5988 13.1211 91.4015 12.5411 93.0288 14.7669C93.5398 15.4667 93.7215 16.4133 93.5807 17.2624C93.442 18.0972 92.9158 18.8856 92.2287 19.3708C90.7435 20.4182 88.6828 20.3695 86.9612 20.0808C85.6119 19.7954 84.7771 19.2176 83.6754 18.4748C83.6151 17.9202 83.6171 17.2748 83.613 16.7129C83.6088 16.1931 83.4757 15.1533 84.0775 14.9769C84.6606 15.0943 84.6787 15.7732 84.8673 16.2127C85.6272 17.9832 87.4493 19.3443 89.4365 19.123C90.2408 19.0334 90.9238 18.8523 91.4341 18.1883C91.6254 17.939 91.8702 17.6087 91.8203 17.2504C91.3377 15.5949 88.1108 15.4807 86.7019 14.9616C85.9586 14.7333 85.2479 14.4602 84.6308 13.978C83.4459 13.0521 83.2822 11.532 84.255 10.3748C85.4088 9.00294 86.8745 8.77739 88.5532 8.61892Z" fill="#F7EFE8"/>
<path d="M77.3027 5.78426C78.9938 5.72012 80.886 5.76146 82.5916 5.76369C82.6499 7.23229 82.3261 6.37165 81.6466 6.79181C81.4448 7.0795 81.2985 8.04739 81.2957 8.42795C81.2749 11.705 81.1404 15.0379 81.3644 18.3057C81.4691 19.8287 82.1402 19.156 82.5202 19.4381C82.6575 19.6821 82.6117 19.9903 82.5459 20.2539L82.4238 20.2632C80.9213 20.2428 78.9529 20.3013 77.424 20.2246C77.2895 20.2179 77.2479 20.0747 77.1758 19.945C77.2486 19.3549 78.4495 19.2458 78.4647 18.6953C78.5355 16.1158 79.1144 8.64269 78.1222 6.66881L77.25 6.70401C77.2472 6.44172 77.2174 6.01594 77.3027 5.78426Z" fill="#F7EFE8"/>
<path d="M98.5349 4.33643C98.6534 4.3478 98.7838 4.37557 98.9024 4.39745C99.1083 4.90883 98.8843 16.3113 99.0154 17.7675C99.2241 20.0837 99.6553 18.9867 100.234 19.4914C100.377 19.7017 100.336 20.0191 100.333 20.2841C98.8406 20.2114 97.0851 20.2509 95.5735 20.2502C95.3198 20.2651 95.3316 20.3055 95.1513 20.1954C95.0806 19.9544 95.066 19.909 95.118 19.6667C95.5493 18.9987 96.6108 19.4642 96.3952 17.3889C96.1573 15.1001 96.9006 8.44256 95.9563 6.70768C95.7039 6.70201 95.5208 6.6983 95.2678 6.66343C94.5917 6.03304 95.5715 5.61057 96.1761 5.60903C97.1315 5.60659 97.8692 4.98278 98.5349 4.33643Z" fill="#F7EFE8"/>
<path d="M75.7579 25.2471C76.2939 25.2202 76.9214 25.2245 77.4643 25.2158L77.4518 31.5475C78.2852 31.5084 79.2566 31.5306 80.0997 31.5303C80.0443 30.1845 80.0886 28.5235 80.0873 27.1533L81.8685 27.1428C81.856 28.9155 81.7631 31.3728 81.8948 33.1021C80.4041 33.0296 78.9113 33.0786 77.4157 33.0507C77.2459 33.9739 76.9796 34.4833 76.2883 35.07C75.5562 35.4863 74.9855 35.7434 74.1147 35.7379C73.1946 35.7256 72.3168 35.3508 71.6719 34.6949C70.3865 33.376 70.6388 31.3536 71.9181 30.1198C72.2974 30.4138 72.6856 30.8203 73.0302 31.1621C72.4444 31.9 72.4672 32.4891 72.66 33.3679C73.7645 34.6205 75.5548 34.4419 75.7011 32.459C75.7662 31.5792 75.5458 25.5328 75.7579 25.2471Z" fill="#F7EFE8"/>
<path d="M55.3571 4.26318C55.6909 4.43207 55.5609 6.56827 55.56 7.03344L55.5486 14.0071C55.5471 15.3044 55.5105 16.6814 55.6118 17.972C55.6383 18.3088 55.7618 18.7925 55.9552 19.0685C56.2501 19.4895 56.43 19.3695 56.8267 19.4493C56.9926 19.6552 56.9424 19.9677 56.9443 20.2661C55.3706 20.2516 53.2985 20.2004 51.7488 20.2731C51.6371 20.109 51.6587 19.8402 51.6688 19.654C51.9322 19.266 52.8367 19.2982 52.8617 18.7178C52.9667 16.2864 53.4992 8.53087 52.5656 6.68132C51.9201 6.71698 51.5487 6.84929 51.6959 5.97326C51.7039 5.77154 52.3432 5.67268 52.5251 5.66954C54.0408 5.64348 54.2827 4.88506 55.3571 4.26318Z" fill="#F7EFE8"/>
<path d="M57.1206 25.2544C57.6281 25.2119 58.2971 25.2244 58.8173 25.2197C58.7961 27.326 58.7906 29.4326 58.8007 31.539C59.6901 31.5204 60.6187 31.5311 61.5114 31.5282C61.4658 30.1195 61.4909 28.5745 61.4863 27.1542L63.2422 27.1398C63.2394 29.0959 63.2058 31.1517 63.2611 33.0999C61.5053 32.9626 58.5842 33.0551 56.7511 33.0563C55.5414 33.055 53.7967 33.0085 52.6289 33.103L52.631 31.5169L54.2736 31.534C53.8766 30.7413 53.112 27.7824 52.8383 26.7794C53.4885 26.7861 53.9522 26.7535 54.6307 26.7946C55.1147 28.3552 55.4936 29.9543 56.0097 31.5472C56.3642 31.5264 56.7717 31.5326 57.1311 31.5302C57.0811 30.391 57.1392 29.0992 57.1113 27.9356C57.1006 27.49 57.0569 25.6024 57.1206 25.2544Z" fill="#F7EFE8"/>
<path d="M48.2926 5.76953C49.0522 5.8175 49.334 6.04398 49.8877 6.51529C50.3095 7.8804 49.6635 8.24863 49.6683 9.40167C49.6808 12.3857 49.5669 15.4048 49.7744 18.3797C49.8513 19.4826 50.4409 19.1504 50.9457 19.5176C51.0846 19.7028 51.0432 20.0416 51.0405 20.2886C49.4361 20.1542 47.4445 20.3251 45.7785 20.2307C45.7694 19.9837 45.7694 19.8933 45.806 19.6501C45.9464 19.3723 46.402 19.356 46.6431 19.17C46.9561 18.9285 47.049 18.4782 47.0956 18.1068C47.2241 17.0824 47.2931 11.7475 46.7969 11.1299C46.7902 11.1216 46.7834 11.1136 46.7766 11.1055C46.5447 10.8218 46.1375 10.9573 45.8801 10.709C45.7525 10.5105 45.799 10.2273 45.8104 9.98256C47.2013 9.89151 47.4599 9.74939 48.73 9.17522C47.781 9.1035 46.9413 8.78669 46.7071 7.73877C46.612 7.32841 46.6898 6.89699 46.9222 6.54558C47.263 6.03953 47.7328 5.88543 48.2926 5.76953Z" fill="#F7EFE8"/>
<path d="M43.3542 26.7871C45.4396 27.8079 46.561 29.2653 46.9857 31.5534C47.7956 31.5085 48.7675 31.5298 49.5895 31.5281C49.5352 30.1648 49.5781 28.5346 49.5794 27.1515C50.1659 27.1514 50.7608 27.1633 51.3436 27.1023C51.36 29.0068 51.261 31.2434 51.3813 33.1239C51.1248 33.0963 50.7967 33.0843 50.5342 33.0677C47.9192 33.0246 45.2885 33.0778 42.6722 33.0536C41.954 33.0469 41.1754 33.0433 40.4631 33.1032C40.4482 32.5833 40.4644 32.0425 40.4723 31.5209C42.0467 31.5517 43.678 31.5287 45.2565 31.5262C44.5049 29.7653 44.3561 29.0685 42.496 28.1982C42.7167 27.7042 43.0514 27.2381 43.3542 26.7871Z" fill="#F7EFE8"/>
<path d="M41.9908 40.0858C42.8838 40.0346 44.1097 40.0438 44.9858 40.1932C46.8026 40.5031 46.9358 43.0008 46.4064 44.3609C46.2327 44.8075 45.9123 45.0639 45.517 45.3074C44.8911 45.611 42.2402 45.9338 41.7477 45.5116C41.809 45.0643 42.2311 45.2955 42.2092 44.4394C42.1791 43.2643 42.2965 42.0175 42.1498 40.8429C42.1176 40.585 41.8013 40.5322 41.7422 40.2387C41.842 40.0898 41.7821 40.1352 41.9908 40.0858ZM43.4086 45.1298C44.0204 45.1172 44.5375 45.1668 44.9938 44.6875L45.0205 44.6591C45.7477 43.5367 45.6201 41.8516 44.846 40.7704C44.2495 40.67 44.0041 40.6554 43.4089 40.6445C43.4305 41.4623 43.486 44.3773 43.4086 45.1298Z" fill="#F7EFE8"/>
<path d="M35.2402 38.5566C39.2816 39.4289 39.8704 44.5966 36.4318 46.8502C35.7734 47.0838 35.2588 47.2314 34.582 47.4099C35.3522 46.6242 36.2056 45.4292 36.4621 44.3551C37.0566 41.8663 36.3825 40.5567 35.2402 38.5566Z" fill="#F7EFE8"/>
<path d="M4.95274 7.22435C6.65314 7.08591 8.33363 7.83074 9.21773 9.31237C9.59325 9.9417 9.67902 10.4523 9.831 11.1557C8.65215 10.0538 7.80702 9.57895 6.25534 9.26907C4.24877 8.80113 2.60311 9.78613 1.00781 10.8141C1.57355 8.62907 2.6733 7.59604 4.95274 7.22435Z" fill="#F7EFE8"/>
<path d="M48.1862 40.0873C49.2905 40.0528 51.1713 40.0239 52.2419 40.1051C52.3135 40.3115 52.3818 40.5191 52.4467 40.7277C52.544 41.0414 52.6546 41.2855 52.5007 41.5776L52.3361 41.572C52.0191 41.4201 51.7134 41.0359 51.4683 40.7657C50.7107 40.6577 50.3528 40.659 49.5795 40.6499C49.6369 41.1752 49.6019 41.8361 49.5893 42.3737C50.5728 42.1786 50.8019 42.5306 51.6953 42.3079C51.8735 42.2635 51.9085 42.2712 52.0191 42.3538C52.0367 42.4567 52.0204 42.5419 51.9745 42.6275C51.0778 44.3002 50.3867 43.0508 49.6818 43.3127C49.5424 43.5937 49.5981 43.6897 49.6117 44.0297C49.6281 44.431 49.6103 44.7226 49.5829 45.1244C50.0847 45.126 50.6057 45.1523 51.1013 45.0565C51.7158 44.9378 52.2765 43.9751 52.6876 43.874C52.8982 44.247 52.4873 45.2631 52.346 45.665C51.6001 45.666 48.4752 45.7451 47.98 45.5753C47.9812 45.3401 48.4062 44.8498 48.403 44.6473C48.384 43.4462 48.4214 42.1532 48.3823 40.9583C48.3779 40.8242 48.0044 40.5124 47.9414 40.2341L48.018 40.1171L48.1862 40.0873Z" fill="#F7EFE8"/>
<path d="M68.8197 39.9453C69.0657 40.0465 69.4743 40.0695 69.7495 40.0987C70.1697 41.4528 71.0052 43.7886 71.6278 45.0685C71.6888 45.1951 72.0861 45.4692 72.2241 45.5647C71.7575 45.6385 70.1121 45.8791 69.8729 45.434C69.9568 45.2263 70.0276 45.2759 70.2709 45.1172C70.2487 44.7629 70.1544 44.4233 69.8473 44.2098C69.7273 44.1263 69.4625 44.2592 69.3226 44.3064C68.9321 44.3783 68.3337 44.0584 67.8839 44.1516C67.1355 44.8435 68.0286 45.0607 68.2318 45.5048L68.1742 45.6064C67.852 45.6868 66.7079 45.7216 66.457 45.5284C66.4887 45.1322 66.8278 45.3166 67.0467 44.7C67.4047 43.6919 68.2774 40.6497 68.8197 39.9453ZM68.1894 43.0686C68.6167 43.1106 68.7859 43.1296 69.1952 43.2502L69.4826 43.3405L69.5616 43.2568C69.5436 42.9398 69.0804 41.4336 68.8458 41.2631C68.6458 41.9238 68.4482 42.4266 68.1894 43.0686Z" fill="#F7EFE8"/>
<path d="M64.4747 25.2575C65.0499 25.2252 65.613 25.2348 66.1884 25.2391C66.167 27.0199 66.1613 28.8007 66.1715 30.5815C66.1747 31.2188 66.2357 32.5466 66.1922 33.1061C65.6068 33.064 65.0192 33.0636 64.4337 33.1049C64.4444 31.347 64.4449 29.5889 64.4354 27.8309C64.4341 27.4371 64.398 25.5427 64.4747 25.2575Z" fill="#F7EFE8"/>
<path d="M58.1244 43.121C58.0615 42.4191 58.1531 41.6746 58.0553 40.9679C58.0131 40.6633 57.9272 40.6671 57.6798 40.4823C57.5914 40.2722 57.597 40.3621 57.6575 40.1445C58.0289 39.9777 58.8035 39.8964 59.0793 40.2584C59.0286 40.515 58.949 40.536 58.7587 40.747C58.5072 42.2105 58.8312 44.0748 58.6409 45.5534C58.6223 45.6981 58.5356 45.7467 58.4285 45.8021C58.11 45.7765 57.9507 45.4752 57.8341 45.2217C57.2204 43.3838 56.3077 42.6099 55.1777 41.2101C55.161 42.2907 55.1067 43.802 55.2132 44.8947C55.2329 45.0977 55.6145 45.2099 55.6605 45.4902L55.5652 45.5958C55.284 45.6936 54.4738 45.6964 54.1875 45.6077C53.9346 45.2819 54.5599 45.0265 54.563 44.7586C54.5776 43.5166 54.6331 42.1799 54.5286 40.9421C54.4942 40.5348 54.1368 40.755 54.1016 40.0807C54.6817 40.0674 54.9766 40.058 55.5594 40.1428C56.422 40.7325 57.5765 42.231 58.1244 43.121Z" fill="#F7EFE8"/>
<path d="M98.8789 40.0696C99.1549 40.063 99.9196 40.0362 100.16 40.1142C101.059 40.4055 102.482 42.3679 102.907 43.1343C102.85 42.4391 102.954 41.742 102.874 41.054C102.834 40.7106 102.707 40.6818 102.452 40.4933C102.376 40.2697 102.368 40.348 102.434 40.1421C102.622 40.0316 103.821 40.0097 103.963 40.1884C103.828 40.6404 103.524 40.6623 103.47 41.077C103.365 41.867 103.61 45.0969 103.42 45.6224C103.239 45.7281 103.186 45.7186 102.974 45.7084C102.751 45.5514 102.816 45.5974 102.687 45.3144C101.996 43.4638 101.221 42.659 99.9786 41.1982C99.9612 42.3376 99.9273 43.5937 100.007 44.7267C100.031 45.0603 100.398 45.2228 100.451 45.5226C100.228 45.7286 99.3046 45.6682 98.9891 45.6403L98.908 45.508C98.9205 45.0937 99.4031 45.1922 99.3767 44.3161C99.3448 43.2433 99.4606 42.0728 99.3234 40.994C99.2616 40.5124 98.9281 40.651 98.8789 40.0696Z" fill="#F7EFE8"/>
<path d="M85.3956 40.1391C86.5847 39.9978 87.1443 40.2578 88.09 40.8852C87.9042 41.3184 87.7301 41.6786 87.5187 42.099C86.6298 40.9846 86.4176 40.5366 84.8728 40.7879C84.791 40.8716 84.6523 41.0076 84.5878 41.0997C83.8695 42.14 84.0228 43.8158 85.18 44.4888C85.7811 44.8385 86.1944 44.7841 86.8614 44.7167C87.251 44.667 87.4625 44.2114 87.8515 43.9909C88.1274 44.0284 88.0657 43.9771 88.2155 44.1558C88.1891 44.7746 86.8288 45.5763 86.2443 45.6344C85.4968 45.7089 84.7404 45.544 84.133 45.1032C83.5644 44.6917 83.1859 44.0688 83.0819 43.3749C82.8239 41.7474 83.7489 40.3889 85.3956 40.1391Z" fill="#F7EFE8"/>
<path d="M110.97 40.1357C111.661 40.0272 113.036 40.2554 113.522 40.7871C113.671 41.2158 113.318 41.7513 113.105 42.1995C112.613 41.4214 112.513 41.3025 111.774 40.7551C111.222 40.6489 111.018 40.6924 110.474 40.783C110.318 40.9369 110.175 41.1038 110.048 41.282C109.158 42.5271 109.904 43.9109 111.014 44.694C111.573 44.7637 111.876 44.7702 112.432 44.725C112.891 44.6041 112.929 44.1794 113.678 44.0249L113.77 44.1038C113.754 44.2518 113.602 44.5227 113.51 44.6443C112.64 45.7925 110.915 45.9546 109.761 45.1396C108.319 44.121 108.174 42.0684 109.444 40.8505C109.919 40.3945 110.336 40.2411 110.97 40.1357Z" fill="#F7EFE8"/>
<path d="M60.9703 40.0817C62.251 40.1028 63.5281 40.054 64.826 40.087C64.9231 40.521 65.2749 41.2387 65.072 41.6124C64.7229 41.6138 64.33 41.0484 64.1132 40.7847L63.3579 40.6359C63.3999 41.9505 63.3081 43.307 63.4028 44.6191C63.4265 44.9489 63.4732 45.0784 63.728 45.3006L63.8547 45.4259L63.8355 45.5505C63.564 45.7265 61.9602 45.7629 61.6909 45.5165C61.7054 45.182 62.1375 45.0505 62.1484 44.6946C62.1888 43.3765 62.0776 41.9324 62.1947 40.6247C61.1473 40.8454 61.5571 40.9172 60.7889 41.5443C60.6664 41.6444 60.5694 41.6623 60.4308 41.6258C60.2819 41.2828 60.5662 40.2538 60.9703 40.0817Z" fill="#F7EFE8"/>
<path d="M73.2038 40.0844C73.9534 40.0608 74.7743 40.0813 75.5294 40.0858C75.4032 40.2457 75.1036 40.6191 75.0496 40.7957C74.6516 42.1049 74.9567 43.727 74.8332 45.1245C75.008 45.1215 75.1834 45.1198 75.3581 45.1196C77.2794 45.1009 77.416 43.8182 78.0282 43.8191C78.1163 43.9736 78.0872 43.9326 78.0303 44.1565C77.8424 44.6998 77.6989 45.1225 77.5581 45.6825C76.2158 45.6444 74.8138 45.7207 73.4763 45.6413C73.26 45.6285 73.2607 45.5997 73.1602 45.4648C73.217 45.2409 73.373 45.2183 73.6185 45.0401C73.8008 44.4663 73.5852 41.956 73.649 41.1826C73.7141 40.4047 73.2503 40.8764 73.2038 40.0844Z" fill="#F7EFE8"/>
<path d="M89.6853 40.0807C90.1921 40.0746 91.0068 40.0411 91.4873 40.1014C91.5685 40.5279 91.1601 40.614 91.0984 41.2171C90.9687 42.4777 91.1573 43.8938 91.0429 45.1245C93.9183 45.1437 92.8858 44.2259 94.0431 43.8557C94.1263 43.8291 94.1422 43.8542 94.2164 43.8914C94.2975 44.0956 94.233 44.2193 94.1651 44.4334C94.0008 44.9347 93.8926 45.2062 93.6666 45.6827C92.9892 45.6593 89.6652 45.8282 89.4059 45.4743L89.4412 45.3563C89.4891 45.3203 89.6735 45.1806 89.6902 45.1198C90.0126 43.964 89.8725 42.0759 89.799 40.8605C89.781 40.5668 89.4925 40.6193 89.3906 40.2296C89.5168 40.0811 89.4655 40.1247 89.6853 40.0807Z" fill="#F7EFE8"/>
<path d="M95.5951 40.0883C96.1865 40.0439 97.1163 40.0716 97.7369 40.0708C97.6322 40.2504 97.3146 40.7172 97.2778 40.8761C97.0359 41.9036 97.0934 43.9875 97.2078 44.9907C97.4651 45.2173 97.741 45.33 97.5323 45.6381C97.0879 45.6638 95.7157 45.8757 95.5243 45.4394C95.5639 45.2177 95.7532 45.0943 95.9272 44.9448C96.0083 43.7283 95.991 42.1538 95.9334 40.9246C95.9237 40.7244 95.6998 40.5666 95.541 40.4298C95.4883 40.2109 95.48 40.2969 95.5951 40.0883Z" fill="#F7EFE8"/>
<path d="M105.23 40.0849C105.619 40.072 107.132 40.0028 107.374 40.1872C107.355 40.4109 107.012 40.6763 107 40.75C106.802 41.9348 106.894 43.7214 106.933 44.941C106.94 45.1429 107.211 45.2437 107.36 45.3269C107.412 45.4997 107.403 45.4387 107.316 45.6361C106.859 45.6634 105.504 45.8669 105.26 45.4633C105.279 45.2347 105.491 45.085 105.665 44.9219C105.727 43.5492 105.731 42.1745 105.678 40.8013C105.343 40.4849 105.31 40.4848 105.23 40.0849Z" fill="#F7EFE8"/>
<path d="M79.4476 33.8935C80.263 33.8404 79.8935 33.9955 80.5411 34.1379C80.8843 34.0774 81.4286 33.822 81.7607 33.9059C82.2329 34.0249 82.2453 34.8418 82.0304 35.1822C81.9111 35.3703 81.6428 35.4878 81.4008 35.6018C81.2032 35.6069 81.0056 35.5429 80.86 35.416C80.8378 35.3968 80.5577 35.2169 80.5529 35.2191C80.1833 35.3899 79.854 35.5517 79.4379 35.5287C78.8368 35.4955 78.8479 34.6608 79.0358 34.2674C79.0961 34.1402 79.3048 33.9917 79.4476 33.8935Z" fill="#F7EFE8"/>
<path d="M60.9778 33.8909C61.6442 33.862 61.4712 34.0382 61.9447 34.1048C62.3664 34.072 62.8171 33.8469 63.2434 33.9665C63.6402 34.0778 63.6747 34.7049 63.5394 35.0393C63.4226 35.3277 63.0551 35.5063 62.7485 35.6254C62.6032 35.582 62.4208 35.534 62.3179 35.4266C62.2728 35.3794 62.0433 35.1964 61.9778 35.2214C61.5606 35.3801 61.1725 35.6233 60.702 35.483C60.1925 35.3313 60.3607 34.6331 60.4582 34.2565C60.5084 34.0625 60.8016 33.963 60.9778 33.8909Z" fill="#F7EFE8"/>
<path d="M66.5624 23.0576C66.8836 23.1321 67.099 23.1978 67.2384 23.5003C67.217 24.0116 66.7751 24.2955 66.3365 24.4585C65.7023 24.6942 65.0755 24.228 64.4484 24.1822C64.2931 24.1708 64.1583 24.3914 64.0643 24.5034C63.887 24.5728 63.5054 24.5264 63.36 24.3962C63.0209 23.6996 64.1287 23.0129 64.7562 23.2011C65.1657 23.324 65.6092 23.4121 66.0311 23.484L66.5624 23.0576Z" fill="#F7EFE8"/>
<path d="M50.22 24.9699C50.4719 24.9099 50.7375 24.9657 50.9439 25.1221C51.1503 25.2784 51.2758 25.519 51.286 25.7776C51.302 26.1804 51.0376 26.5408 50.6484 26.6468C50.3467 26.729 50.0241 26.6422 49.8044 26.4198C49.5847 26.1974 49.5021 25.8739 49.5882 25.5734C49.6743 25.273 49.9158 25.0423 50.22 24.9699Z" fill="#F7EFE8"/>
<path d="M5.26193 10.1607L5.32741 9.99001L5.4406 9.96631C5.58756 10.1789 5.7324 11.1488 5.79044 11.4573L5.72752 11.7127C5.58655 11.6213 5.75217 11.6594 5.5721 11.4565L5.42115 11.5187L5.3133 11.4723C5.22598 11.2092 5.28022 10.5288 5.26193 10.1607Z" fill="#F7EFE8"/>
</svg>
