<svg width="28" height="28" viewBox="0 0 28 28" fill="none" xmlns="http://www.w3.org/2000/svg">
<path d="M23.9812 18.9005V21.8922C23.9823 22.1699 23.9254 22.4448 23.8141 22.6992C23.7029 22.9537 23.5397 23.1821 23.335 23.3699C23.1304 23.5576 22.8888 23.7006 22.6257 23.7896C22.3626 23.8785 22.0838 23.9116 21.8072 23.8866C18.7386 23.5532 15.791 22.5046 13.2013 20.8251C10.7918 19.2941 8.74904 17.2513 7.21798 14.8418C5.53267 12.2403 4.48386 9.27838 4.15653 6.196C4.13161 5.92023 4.16438 5.6423 4.25276 5.3799C4.34114 5.1175 4.48319 4.87637 4.66986 4.67188C4.85654 4.46738 5.08375 4.30399 5.33703 4.19212C5.5903 4.08024 5.8641 4.02233 6.14099 4.02207H9.13263C9.61659 4.01731 10.0858 4.18868 10.4527 4.50426C10.8197 4.81983 11.0593 5.25806 11.1271 5.73728C11.2533 6.69467 11.4875 7.6347 11.8251 8.53945C11.9593 8.89638 11.9883 9.28428 11.9088 9.65721C11.8293 10.0301 11.6445 10.3724 11.3764 10.6436L10.1099 11.91C11.5295 14.4066 13.5966 16.4737 16.0932 17.8933L17.3597 16.6269C17.6308 16.3587 17.9731 16.174 18.346 16.0944C18.7189 16.0149 19.1068 16.0439 19.4638 16.1781C20.3685 16.5157 21.3086 16.7499 22.2659 16.8762C22.7504 16.9445 23.1928 17.1885 23.509 17.5617C23.8253 17.935 23.9933 18.4115 23.9812 18.9005Z" stroke="#66451E" stroke-width="1.99443" stroke-linecap="round" stroke-linejoin="round"/>
</svg>
