<svg width="16" height="16" viewBox="0 0 16 16" fill="none" xmlns="http://www.w3.org/2000/svg">
<path d="M8.0013 2.15478C8.5295 2.42944 8.99544 2.80998 9.37005 3.27269C9.74466 3.73539 10.0199 4.27032 10.1786 4.84411C10.2257 5.01456 10.3385 5.15934 10.4923 5.24661C10.646 5.33387 10.8282 5.35648 10.9986 5.30945C11.1691 5.26241 11.3139 5.1496 11.4011 4.99582C11.4884 4.84204 11.511 4.65989 11.464 4.48945C11.1607 3.39383 10.5349 2.41476 9.66797 1.67945C9.77819 1.67056 9.8893 1.66634 10.0013 1.66678C11.3393 1.66678 12.4546 2.15211 13.2213 3.07345C13.9766 3.97811 14.3346 5.23078 14.3346 6.66678C14.3346 8.73145 13.992 10.5768 13.4046 11.9321C12.8446 13.2241 11.9326 14.3334 10.668 14.3334C9.93464 14.3334 9.47664 13.8988 9.20464 13.4268C8.9633 13.0068 8.8193 12.4781 8.7033 12.0521C8.5653 11.5454 8.4593 11.1668 8.30864 10.9054C8.1853 10.6901 8.1013 10.6668 8.0013 10.6668C7.9013 10.6668 7.81797 10.6901 7.69397 10.9054C7.5433 11.1668 7.4373 11.5454 7.2993 12.0521C7.1833 12.4781 7.0393 13.0074 6.79797 13.4268C6.52597 13.8988 6.06797 14.3334 5.33464 14.3334C4.06997 14.3334 3.15797 13.2241 2.59797 11.9321C2.0113 10.5768 1.66797 8.73211 1.66797 6.66678C1.66797 5.23078 2.02664 3.97811 2.7813 3.07345C3.54797 2.15211 4.66264 1.66678 6.0013 1.66678H6.01997C6.70984 1.66941 7.38912 1.83672 8.0013 2.15478Z" fill="#815622"/>
</svg>
