<svg preserveAspectRatio="none" width="100%" height="100%" overflow="visible" style="display: block;" viewBox="0 0 209.922 75.4775" fill="none" xmlns="http://www.w3.org/2000/svg">
<g id="&#216;&#181;&#217;&#138;&#217;&#129;&#217;&#131; &#216;&#163;&#216;&#173;&#217;&#132;&#217;&#137; &#217;&#133;&#216;&#185; (100 x 50 &#216;&#179;&#217;&#133;) (36 x 25 &#216;&#179;&#217;&#133;) 2 [Vectorized]">
<path id="Vector" d="M53.4042 62.1351C50.0482 62.57 45.3356 62.0093 41.9498 61.9247C38.2024 61.831 35.0246 62.2812 31.2464 61.7487C23.391 60.755 16.2645 56.7258 11.6907 50.298C6.06747 42.3957 6.04173 34.1316 7.41724 24.9935C7.78762 22.5328 7.24193 19.1352 7.65893 16.3691C7.73273 16.7771 7.67343 16.8537 7.94127 17.0953C8.04004 17.0879 8.3148 17.0777 8.3886 17.0446C8.3329 17.3392 8.31421 17.4153 8.1965 17.69C8.26536 18.2552 8.70398 18.5385 8.88938 19.0681C8.97978 19.3264 8.81203 19.6803 8.91826 19.8094C9.04422 19.5424 9.0224 19.3462 9.02305 19.0514C9.46104 20.9246 9.71421 22.631 10.2444 24.6558C11.6936 30.0009 13.9903 35.0791 17.0471 39.6964C23.2009 48.9371 32.6494 55.9036 43.108 59.4992C46.8668 60.7916 49.5461 61.3623 53.4042 62.1351Z" fill="var(--fill-0, #F7EFE8)"/>
<path id="Vector_2" d="M203.632 6.32129C203.755 6.40508 203.882 6.49034 203.894 6.6682C203.975 7.89423 203.931 9.26353 203.928 10.4898L203.915 21.4382C203.914 23.3219 203.869 25.2842 203.977 27.1679C204.056 28.5595 204.718 28.6329 205.888 28.8017L205.815 30.0038C203.442 29.9453 198.541 30.1387 196.473 29.7929C194.352 29.4491 192.46 28.2637 191.224 26.5052C187.893 22.5457 188.589 13.0829 195.102 12.7359C197.132 12.6277 198.631 13.6228 200.065 14.9574C200.052 13.5151 200.142 11.7885 199.71 10.4016C199.422 9.47615 198.747 10.1154 198.173 9.70304C197.993 9.35073 198.083 8.95929 198.128 8.56006C199.82 8.49592 201.31 8.13588 202.61 7.01903C202.909 6.7634 203.251 6.52144 203.6 6.33831L203.632 6.32129ZM197.434 28.1659C198.322 28.4273 199.652 28.4304 199.813 27.2979C200.216 24.4638 200.073 20.946 199.943 18.098C199.875 16.5957 197.604 14.9915 196.103 15.0964C192.392 16.4946 192.768 20.7279 193.797 23.9265C194.388 25.7614 195.643 27.3578 197.434 28.1659Z" fill="var(--fill-0, #F7EFE8)"/>
<path id="Vector_3" d="M43.4185 11.8642C43.6759 12.1777 43.4982 14.8395 43.4459 15.3858C46.5375 12.2481 50.0236 11.2527 52.2905 15.8063C52.324 15.7521 52.3591 15.6989 52.3957 15.6467C53.2818 14.3808 55 13.0264 56.5915 12.828C63.1795 12.0066 62.1105 22.1332 63.8992 26.047C64.3557 27.0459 64.4548 28.0359 65.7551 27.4542C66.157 27.2743 67.0531 28.1187 66.3641 28.8968C65.7781 29.562 64.9476 29.9613 64.0622 30.0032C58.1147 30.2759 59.804 18.5898 56.9887 15.6372C55.7055 14.2916 53.6159 16.798 52.8759 17.6819C53.429 19.1352 53.7115 22.0169 54.1963 23.8083C54.2565 24.7676 54.9527 27.3896 56.0759 27.6869C56.3273 27.7533 56.6203 27.4793 56.8309 27.3292C57.0898 27.5782 57.3912 27.8409 57.6599 28.085C57.3922 28.8037 57.1427 29.1004 56.5148 29.5568C55.8822 30.0164 54.61 30.0533 53.9128 29.8752C49.3534 28.7107 50.4039 19.3232 48.2463 15.9569C48.0112 15.59 47.6548 15.3459 47.2423 15.2689C46.7178 15.1709 46.1251 15.5121 45.7217 15.7646C45.1319 16.1338 43.6321 17.5372 43.6012 18.2613C43.4846 20.9976 43.5119 23.9827 43.6221 26.7302C43.6369 27.098 43.813 27.9634 44.0233 28.2523C44.3273 28.6702 44.9204 28.7019 45.3915 28.7573C45.569 29.0255 45.4909 29.3987 45.4853 29.7808C45.4452 29.8252 45.3981 29.8775 45.3438 29.9376C43.386 30.1181 39.5321 29.8217 37.7839 30.0482C37.7773 29.8961 37.7743 29.7439 37.775 29.5918C37.7956 27.962 38.3815 29.1769 39.1444 28.3992C40.1384 27.386 39.8111 21.0609 39.7648 19.4255C39.7419 18.6197 39.7319 16.8107 39.1089 16.2435C38.8123 15.9734 38.186 16.0726 37.8127 16.0864L37.7615 14.7895C41.0238 14.4751 41.3816 14.2156 43.4185 11.8642Z" fill="var(--fill-0, #F7EFE8)"/>
<path id="Vector_4" d="M122.799 37.3758C123.579 37.3073 124.585 37.3365 125.383 37.3382C125.363 40.4134 125.436 43.6389 125.362 46.6916C127.231 46.5884 129.739 46.6608 131.661 46.6611L143.653 46.6581L143.626 46.6003C143.268 45.8559 143.137 45.1329 143.164 44.3039C143.203 43.1257 143.639 42.0804 144.505 41.2724C145.463 40.3773 146.803 39.9454 148.104 39.9967C153.464 40.2078 152.216 45.5388 152.973 46.3244C153.54 46.9141 155.604 46.6741 156.407 46.6613C156.301 45.286 156.349 43.038 156.335 41.5838C157.231 41.5746 158.125 41.5784 159.021 41.5949C158.998 43.2947 158.983 44.9947 158.978 46.6947C159.729 46.6538 160.579 46.6689 161.339 46.6655C161.28 44.9831 161.332 43.2005 161.285 41.4821C162.142 41.464 162.999 41.4505 163.856 41.4418C163.879 42.236 163.832 43.2623 163.815 44.0731C163.826 44.9445 163.849 45.8071 163.794 46.6774L166.122 46.6602C165.976 45.2932 166.059 41.631 166.051 40.1315C166.557 40.1987 168.118 40.1937 168.7 40.2053C168.556 42.8482 168.604 46.3662 168.744 48.9965C164.256 48.6885 158.949 49.093 154.405 48.9287C152.826 48.8715 152.285 48.9505 151.19 47.8106C150.693 48.1716 149.961 48.7093 149.367 48.7797C147.311 49.0227 144.867 48.9299 142.79 48.9307L129.952 48.923C127.962 48.9206 124.628 48.8282 122.773 48.9921L122.777 41.4884C122.772 40.8395 122.689 37.8168 122.799 37.3758ZM148.373 46.6555C148.911 46.454 149.123 46.3645 149.615 46.073C150.546 44.4517 150.457 43.293 148.825 42.1695C148.417 42.167 147.802 42.1457 147.414 42.1735C145.521 42.3635 145.042 45.3447 146.256 46.473C146.6 46.7941 147.883 46.6705 148.373 46.6555Z" fill="var(--fill-0, #F7EFE8)"/>
<path id="Vector_5" d="M155.771 12.7603C155.835 12.753 155.893 12.7484 155.956 12.7453C164.072 12.1691 162.605 20.3006 164.47 25.5704C164.896 26.7771 165.303 27.896 166.547 27.5252C166.859 27.4322 167.259 27.9075 167.512 28.1453C166.908 29.1617 166.302 29.8713 165.049 30.0043C164.099 30.0979 163.152 29.8118 162.412 29.2085C161.357 28.343 160.558 26.6808 160.422 25.3267C159.102 28.5503 157.918 29.7175 154.372 29.9675C150.858 29.8339 148.56 27.724 149.534 23.9896C150.477 20.3826 155.024 19.5817 156.825 16.6809C157.21 16.0615 157.373 14.9621 156.539 14.5993C154.577 13.7123 151.57 16.7061 150.792 18.274C150.199 17.0126 149.733 15.4 149.098 14.2898C151.964 13.1985 152.732 12.969 155.771 12.7603ZM154.16 27.2166C156.507 28.0044 158.078 26.5722 158.812 24.3704C159.503 22.2996 159.414 19.8328 158.853 17.7259L158.748 17.611C158.381 18.4293 157.997 19.1839 157.35 19.8143C155.785 21.3416 150.958 24.9738 154.16 27.2166Z" fill="var(--fill-0, #F7EFE8)"/>
<path id="Vector_6" d="M27.6304 8.55584C31.1792 8.47333 33.886 9.50952 36.7019 11.5976C36.1948 13.031 35.6634 14.4558 35.1077 15.8711C32.8096 13.2154 31.8716 10.4559 27.7168 10.1544C23.7554 9.86689 19.9432 13.8808 25.3058 15.7678C28.5625 16.9138 32.7245 16.8567 35.2152 19.5009C37.2292 21.7963 37.0459 26.089 34.5597 28.0678C31.7991 30.2649 28.8862 30.0363 25.6188 29.8082C23.2029 29.3978 20.8584 28.1178 19.0108 26.5327C18.9644 25.7829 18.9166 21.2017 19.036 20.7096C20.8482 20.2147 20.4489 21.6335 20.9239 22.7296C22.3941 26.1212 25.2289 28.6254 29.0999 28.3137C31.2307 28.142 33.799 27.0713 33.6028 24.5299C33.4066 21.9894 30.6064 21.0971 28.5219 20.6155C25.8029 19.9616 22.8179 19.5296 20.6055 17.6737C19.8696 17.0544 19.0363 15.7841 18.9883 14.8022C18.9345 13.699 19.5248 12.3451 20.242 11.5226C22.2732 9.30165 24.7747 8.7072 27.6304 8.55584Z" fill="var(--fill-0, #F7EFE8)"/>
<path id="Vector_7" d="M93.6569 12.7558C98.4789 12.5321 101.317 15.8347 101.442 20.4775C97.5133 20.6347 93.1696 20.3654 89.1456 20.5021C89.5004 23.2422 90.6437 25.9633 93.2955 27.2084C94.5589 27.8048 96.0086 27.8691 97.3197 27.387C99.2109 26.6894 100.358 25.1919 101.168 23.4293C101.291 23.1758 101.367 23.0959 101.546 22.8826C101.882 22.6928 102.355 22.7506 102.755 22.7595C102.656 23.2144 102.585 23.7229 102.442 24.1579C101.494 27.0534 98.6713 29.5123 95.6051 29.88C83.9115 31.2825 81.5878 14.2487 93.6569 12.7558ZM89.1586 18.8657L93.9409 18.8555C95.1701 18.8574 96.4446 18.8409 97.6694 18.8623C96.6511 16.547 95.8469 14.6637 92.9963 14.5871C90.3553 14.9965 89.7272 16.4304 89.1586 18.8657Z" fill="var(--fill-0, #F7EFE8)"/>
<path id="Vector_8" d="M174.113 11.5527C174.267 11.9501 174.131 14.799 174.053 15.332C175.202 14.1614 176.592 12.8982 178.35 12.7718C184.736 12.5255 183.514 21.9647 185.384 26.0573C186.718 28.9765 186.444 26.5976 188.311 28.1156C187.29 29.854 185.367 30.6077 183.713 29.5892C180.57 27.6546 180.382 20.4357 179.364 17.1053C178.049 13.5333 175.714 15.9459 174.267 17.8249C174.029 20.6839 174.138 23.9987 174.27 26.8862C174.378 29.2298 175.449 28.3966 176.034 28.8423C176.265 29.1288 176.206 29.6218 176.207 30.0109C173.767 29.8755 170.934 30.1152 168.592 29.9707C168.393 29.6452 168.41 29.1586 168.549 28.8123C168.818 28.535 169.168 28.5824 169.514 28.4881C169.75 28.4242 169.914 28.2669 170.028 28.0545C170.573 27.0372 170.562 18.2737 170.157 17.0195C169.877 16.1539 169.248 16.2384 168.562 15.887C168.321 15.4828 168.406 15.328 168.402 14.7961C171.487 14.4847 172.403 14.1421 174.113 11.5527Z" fill="var(--fill-0, #F7EFE8)"/>
<path id="Vector_9" d="M130.914 12.7553C133.472 12.6043 135.796 13.2093 138.078 14.3157C137.669 15.8533 136.93 17.0766 136.604 18.5849C135.535 16.5086 134.64 15.0207 132.222 14.4546C130.58 14.0701 127.189 14.711 126.943 16.6005C126.66 18.7825 133.531 19.1899 135.003 20.0532C136.015 20.6472 136.863 20.8429 137.556 21.9212C138.985 23.9569 138.616 26.9431 136.611 28.4568C134.209 30.2694 131.113 30.1653 128.309 29.6773C126.128 29.0036 125.565 28.6018 123.709 27.347C123.594 26.4699 123.624 25.4361 123.601 24.5418C123.582 23.7988 123.456 22.5354 124.226 22.1817C125.073 22.3041 125.159 23.0503 125.345 23.7013C126.484 27.704 133.247 30.5863 135.662 26.121C135.983 21.5748 123.803 23.767 123.661 18.1107C123.558 14.0466 127.846 13.0446 130.914 12.7553Z" fill="var(--fill-0, #F7EFE8)"/>
<path id="Vector_10" d="M114.279 8.56052C115.298 8.50583 121.517 8.40566 122.078 8.68268C122.231 9.03234 122.126 9.49451 122.078 9.88627L120.658 9.94168C120.416 10.6394 120.248 11.5346 120.219 12.2808C120.038 16.8002 120.121 21.3541 120.167 25.878C120.189 26.273 120.276 28.6875 120.906 28.5377C121.815 28.322 122.699 29.2703 121.98 29.988C119.682 29.9624 116.415 29.8854 114.17 30.0141C114.165 29.6482 114.139 29.3604 114.255 29.0092C114.502 28.7051 114.957 28.6762 115.298 28.5088C115.658 28.3313 115.844 28.0389 115.965 27.6634C116.432 26.205 116.333 14.0066 116.129 12.1499C116.037 11.305 115.878 10.6261 115.489 9.86939L114.2 9.92178C114.196 9.53313 114.15 8.90304 114.279 8.56052Z" fill="var(--fill-0, #F7EFE8)"/>
<path id="Vector_11" d="M145.663 6.41809L146.076 6.46394C146.13 6.50581 146.192 6.55556 146.264 6.61316C146.337 7.29254 146.334 8.51296 146.334 9.14073L146.322 20.4439C146.32 22.7402 146.084 26.5464 146.871 28.5727C147.372 28.6661 147.885 28.7014 148.393 28.7472C148.361 29.1685 148.338 29.5903 148.319 30.0123C146.222 29.9016 143.5 29.9726 141.356 29.9675C141.144 29.988 140.985 29.9802 140.776 29.9735L140.632 29.8074C140.28 27.9678 142.885 29.2698 142.503 25.9183C142.117 22.5225 143.288 12.5628 141.854 9.92748C141.499 9.92226 141.187 9.92761 140.836 9.86294C140.581 9.61809 140.667 9.709 140.589 9.36542C140.386 8.48886 141.412 8.37107 142.178 8.30134C143.75 8.1585 144.556 7.49774 145.663 6.41809Z" fill="var(--fill-0, #F7EFE8)"/>
<path id="Vector_12" d="M111.999 37.3657C112.768 37.3214 113.735 37.3302 114.519 37.318L114.501 46.6886C115.734 46.6312 117.168 46.6637 118.415 46.6632C118.331 44.6832 118.398 42.2043 118.396 40.1855L121.03 40.1701C121.018 42.8232 120.872 46.4032 121.068 48.9925C118.868 48.8838 116.663 48.9529 114.455 48.9071C114.245 50.2176 113.802 51.0832 112.781 51.8993C111.697 52.5174 110.856 52.8986 109.566 52.8903C108.206 52.872 106.908 52.3168 105.955 51.3457C104.057 49.3944 104.429 46.4012 106.32 44.576C106.948 45.0779 107.388 45.5454 107.944 46.1186C107.889 46.1853 107.837 46.2537 107.787 46.3235C107.118 47.2589 107.191 48.2493 107.372 49.3076C108.538 50.7747 110.798 51.1879 111.691 49.1973C112.31 47.8176 111.535 37.9718 111.999 37.3657Z" fill="var(--fill-0, #F7EFE8)"/>
<path id="Vector_13" d="M84.4404 37.3704C85.3724 37.3213 86.0193 37.3166 86.948 37.3844C86.9183 40.4874 86.9149 43.5906 86.9376 46.6935C88.2133 46.6371 89.6487 46.6631 90.9363 46.6595C90.8682 44.5758 90.9057 42.2824 90.8987 40.1867L93.5679 40.1708C93.5286 43.1654 93.4734 45.9793 93.6027 48.9852C90.5846 48.8445 87.1518 48.9202 84.1033 48.9216C82.2556 48.9196 79.5846 48.8468 77.8047 48.9908L77.807 46.6445L80.2379 46.6685C79.6481 45.4958 78.5218 41.1207 78.1139 39.6323C79.0677 39.6421 79.766 39.5925 80.7631 39.6492C81.4472 42.0017 82.0687 44.3359 82.7918 46.6823C83.3251 46.6558 83.9238 46.6634 84.4628 46.6588C84.3831 44.9571 84.473 43.0116 84.4292 41.2701C84.4122 40.5922 84.351 37.9204 84.4404 37.3704Z" fill="var(--fill-0, #F7EFE8)"/>
<path id="Vector_14" d="M81.8345 6.30859C82.3249 6.55492 82.1367 9.76754 82.1356 10.4643L82.1222 20.6602C82.1206 22.6241 81.877 26.3852 82.6698 28.2662C82.8276 28.6405 83.5799 28.686 83.977 28.758C84.2577 29.1065 84.1789 29.4992 84.1845 29.9946C81.8702 29.9666 78.7811 29.8966 76.5006 30.0034C76.3367 29.7625 76.3685 29.3603 76.383 29.087C76.7718 28.5127 78.1095 28.5601 78.1473 27.7018C78.3057 24.103 79.0863 12.6132 77.7088 9.88873C77.3221 9.9016 76.7654 9.9898 76.4968 9.76301C76.3006 9.45582 76.3802 8.95738 76.3995 8.57326C77.9299 8.47762 79.4143 8.19993 80.6314 7.24304C81.0844 6.88681 81.3379 6.62153 81.8345 6.30859Z" fill="var(--fill-0, #F7EFE8)"/>
<path id="Vector_15" d="M71.3914 8.53906C71.4313 8.54137 71.4712 8.54412 71.5111 8.54729C72.2125 8.60391 73.1671 8.96019 73.6172 9.53709C74.5951 10.7906 73.494 12.48 73.4713 13.5387C73.4282 15.5527 73.4339 17.6258 73.4485 19.6425C73.514 22.0814 73.33 24.5806 73.5569 27.0091C73.69 28.434 74.0851 28.6501 75.3398 28.7345C75.4882 28.9365 75.4514 29.7267 75.4542 30.0255C73.9033 29.8764 68.6762 30.1426 67.6652 29.8952C67.6298 28.2634 68.403 29.0703 69.1554 28.2026C69.9547 27.2805 69.7779 19.7343 69.6526 18.1617C69.4627 15.7766 68.8305 16.6822 67.8075 15.8053C67.6416 15.5045 67.7052 15.1253 67.7254 14.7737C69.7708 14.64 70.1712 14.4261 72.0387 13.579C70.6358 13.4732 69.3945 13.0033 69.0489 11.4528C68.9084 10.8457 69.0232 10.2076 69.3662 9.68749C69.8696 8.9386 70.5641 8.71033 71.3914 8.53906Z" fill="var(--fill-0, #F7EFE8)"/>
<path id="Vector_16" d="M64.0913 39.6434C67.1592 41.114 68.8267 43.3388 69.4484 46.681C70.707 46.646 72.0456 46.6641 73.3106 46.6597C73.2223 44.6813 73.2928 42.1977 73.2946 40.1814C74.1615 40.1827 75.0401 40.2012 75.902 40.1144C75.9476 42.98 75.7768 46.1865 75.9582 49.0219C75.5637 48.9754 75.0198 48.9596 74.6134 48.937C70.7848 48.8795 66.9368 48.9502 63.1065 48.918C62.0324 48.9088 60.8899 48.9051 59.8229 48.9891C59.7923 48.2212 59.8187 47.4205 59.8318 46.6498C62.1626 46.6929 64.5666 46.6606 66.9028 46.6565C65.7364 44.0249 65.6371 43.0509 62.8229 41.7312C63.1494 41.0012 63.6444 40.3103 64.0913 39.6434Z" fill="var(--fill-0, #F7EFE8)"/>
<path id="Vector_17" d="M61.8797 59.3288C65.8262 59.1986 69.4566 58.8652 68.9532 64.1403C68.8236 65.4987 68.7072 65.9145 67.6539 66.8566C66.0627 67.7397 64.2733 67.6081 62.4821 67.6268C62.1459 67.6302 61.9181 67.5371 61.707 67.2959C61.8231 66.9039 62.3279 66.761 62.3487 66.4492C62.4712 64.6203 62.3733 62.7044 62.3969 60.863C62.4048 60.2455 62.1621 60.1314 61.7772 59.7977C61.7296 59.5103 61.7255 59.6148 61.8797 59.3288ZM64.2454 66.7945C65.1695 66.77 65.834 66.8201 66.5375 66.1274C67.6338 64.4288 67.4531 61.978 66.3022 60.3371C65.4272 60.1947 65.0896 60.1421 64.1854 60.1627C64.1572 62.3735 64.1772 64.5846 64.2454 66.7945Z" fill="var(--fill-0, #F7EFE8)"/>
<path id="Vector_18" d="M52.0981 57.062C58.0562 58.3502 58.9812 65.9758 53.8774 69.3273C52.8973 69.6819 52.1351 69.8968 51.1248 70.1643C52.2657 68.9992 53.5224 67.2358 53.9045 65.6431C54.7852 61.9716 53.7882 60.0192 52.0981 57.062Z" fill="var(--fill-0, #F7EFE8)"/>
<path id="Vector_19" d="M71.2754 59.3151C73.2251 59.3094 75.2451 59.2718 77.1875 59.3227C77.3855 59.8592 77.9397 61.034 77.6418 61.5444C77.0065 61.5061 76.5342 60.8233 76.0938 60.3311C75.1485 60.1594 74.2595 60.1615 73.3017 60.1364C73.3538 60.9114 73.3238 61.9159 73.3218 62.7082C73.3685 62.6983 73.4155 62.6886 73.4624 62.6795C74.4146 62.495 74.4343 62.6384 75.3431 62.7339C75.7117 62.7727 76.5341 62.4745 76.9196 62.7333C76.9598 62.9171 76.9879 62.95 76.8995 63.1146C75.728 65.2959 74.447 63.7487 73.434 64.1782C73.2444 64.4189 73.3133 64.8226 73.3278 65.1456C73.3566 65.6983 73.3538 66.2366 73.3538 66.7896C74.0332 66.7886 74.9463 66.8176 75.6033 66.6725C76.4018 66.4961 77.2478 65.0655 77.9287 64.977C78.1731 65.3784 77.6687 67.2716 77.3663 67.3953C76.6281 67.6972 71.1546 67.73 70.832 67.3384C70.9605 66.8504 71.4692 66.7846 71.5018 66.3661C71.6287 64.6883 71.5022 62.9835 71.5581 61.2973C71.5749 60.7938 71.1111 60.0185 70.9143 59.5793L71.0003 59.3848L71.2754 59.3151Z" fill="var(--fill-0, #F7EFE8)"/>
<path id="Vector_20" d="M1.49219 16.0058C2.25666 13.1974 3.51742 11.5273 6.51963 10.8459C8.3103 10.4571 10.182 10.7929 11.7261 11.7801C12.6385 12.3598 13.842 13.6227 14.0747 14.663C13.8735 15.0084 13.7479 15.4986 13.6069 15.6788C10.8824 13.5957 7.74662 12.9586 4.52175 14.255C3.35188 14.7254 2.53006 15.3307 1.49219 16.0058Z" fill="var(--fill-0, #F7EFE8)"/>
<path id="Vector_21" d="M101.734 59.1245C102.138 59.272 102.67 59.2915 103.108 59.3305C103.83 61.4871 104.922 64.6669 105.757 66.6919C106.095 66.9223 106.243 66.9356 106.366 67.274L106.24 67.4538C105.657 67.7151 103.728 67.7538 103.272 67.3737C103.414 66.9463 103.629 67.0948 103.904 66.7179C103.694 66.1643 103.549 65.8164 103.28 65.2905L102.473 65.5719C101.725 65.7143 100.621 64.8832 100.107 65.6189C99.4665 66.5352 100.789 66.8778 100.903 67.3508C100.51 67.6764 98.7523 67.7097 98.4336 67.3901C98.4326 66.8991 99.2321 65.951 99.4224 65.3452C99.8303 64.0474 101.005 60.0442 101.734 59.1245ZM100.803 63.7442C101.455 63.801 101.678 63.8274 102.302 64.0132C102.58 64.1116 102.679 64.2082 102.9 64.1243C102.849 63.693 102.049 61.3136 101.814 60.9987C101.458 62.0193 101.22 62.7406 100.803 63.7442Z" fill="var(--fill-0, #F7EFE8)"/>
<path id="Vector_22" d="M95.3077 37.3758C96.2678 37.3425 96.8665 37.3323 97.8256 37.4076C97.849 37.8776 97.8533 40.0183 97.815 40.4141C97.7087 41.5111 97.9876 48.653 97.7732 48.944C96.8961 48.942 96.1364 48.9408 95.2594 49.0043C95.2779 46.3907 95.279 43.777 95.2629 41.1633C95.26 40.52 95.2063 37.8767 95.3077 37.3758Z" fill="var(--fill-0, #F7EFE8)"/>
<path id="Vector_23" d="M85.9275 63.8206C85.8607 62.7824 85.9578 61.7122 85.8333 60.6713C85.7742 60.1772 85.6362 60.1818 85.2433 59.8799C85.1563 59.5787 85.1406 59.6803 85.239 59.4108C85.7897 59.1734 86.939 59.0477 87.344 59.5803C87.2669 59.9624 87.1522 59.989 86.8674 60.3016C86.4943 62.4667 86.9781 65.2359 86.6961 67.4159C86.6694 67.6218 86.5373 67.6997 86.3822 67.7805C85.8757 67.7037 85.7003 67.3529 85.5046 66.934C84.5593 64.1228 83.2636 63.1157 81.5737 60.9827C81.5463 62.6384 81.4702 65.0497 81.62 66.6333C81.9707 66.862 82.2008 66.9494 82.2416 67.3746C81.8044 67.7481 80.2926 67.7081 79.9533 67.3276C80.0422 66.9953 80.2479 66.9412 80.4739 66.7009C80.8201 66.3327 80.7625 61.3111 80.6151 60.5914C80.4865 59.964 80.0254 60.1743 79.983 59.3163C80.8466 59.2969 81.2934 59.2868 82.163 59.4024C83.4039 60.3273 85.1165 62.4855 85.9275 63.8206Z" fill="var(--fill-0, #F7EFE8)"/>
<path id="Vector_24" d="M146.168 59.2944C146.683 59.2836 147.348 59.2561 147.836 59.359C149.403 59.6896 151.386 62.5121 152.149 63.8649C152.06 62.9922 152.123 61.958 152.099 61.0618C152.067 59.8735 151.423 60.3548 151.383 59.4813L151.544 59.338C152.082 59.3016 153.146 59.2512 153.631 59.4153C153.611 59.9183 152.94 60.3471 152.918 60.9878C152.844 63.1132 153.071 65.3275 152.89 67.4394C152.875 67.6242 152.791 67.633 152.646 67.7181C152.067 67.6188 152.032 67.5376 151.787 67.0414C150.847 64.3901 149.565 63.0462 147.802 60.9741C147.785 62.6617 147.715 64.6059 147.855 66.288C147.88 66.5806 148.426 66.9788 148.5 67.3714C148.171 67.676 146.803 67.5874 146.338 67.545L146.217 67.347C146.229 66.944 146.754 66.6129 146.775 66.4935C147.058 64.8742 146.941 62.3255 146.833 60.6695C146.789 59.9896 146.269 60.2195 146.168 59.2944Z" fill="var(--fill-0, #F7EFE8)"/>
<path id="Vector_25" d="M164.051 59.399C165.073 59.2398 167.105 59.5744 167.823 60.3634C168.04 60.9876 167.527 61.7808 167.222 62.4453C166.497 61.3349 166.306 61.1008 165.239 60.3154C164.415 60.1579 164.122 60.2219 163.312 60.3586C161.393 62.3927 161.909 64.6191 164.123 66.1467C164.979 66.2424 165.357 66.2609 166.211 66.1911C166.892 66.0113 166.947 65.3827 168.056 65.1553L168.192 65.2725C168.167 65.4894 167.94 65.8939 167.805 66.072C166.519 67.7705 163.969 68.011 162.264 66.8038C160.132 65.2945 159.919 62.2607 161.796 60.4572C162.499 59.7826 163.113 59.5554 164.051 59.399Z" fill="var(--fill-0, #F7EFE8)"/>
<path id="Vector_26" d="M126.24 59.4043C127.988 59.1963 128.82 59.5735 130.212 60.503C129.991 61.0823 129.664 61.7418 129.398 62.3121C128.072 60.6733 127.758 59.9886 125.476 60.364C125.369 60.4698 125.265 60.5788 125.165 60.6912C123.856 62.1747 124.263 65.211 126.189 65.9946C127.001 66.3248 127.372 66.2672 128.23 66.2033C129.135 66.0814 129.351 65.1841 130.127 65.1946L130.279 65.3662C130.284 65.6325 130.319 65.6887 130.151 65.9176C128.783 67.7716 126.177 68.0795 124.342 66.7212C123.507 66.1048 122.955 65.1771 122.813 64.1484C122.461 61.7583 123.823 59.7631 126.24 59.4043Z" fill="var(--fill-0, #F7EFE8)"/>
<path id="Vector_27" d="M90.1233 59.3193L95.8124 59.3032C96.031 59.9969 96.3422 60.8163 96.3364 61.5268L96.2199 61.6315C95.301 61.3086 95.3919 60.3875 93.6709 60.1531C93.6688 61.191 93.492 66.264 93.9542 66.7131C94.2756 67.0293 94.2842 66.9472 94.3905 67.3303C94.0404 67.7487 91.6953 67.6694 91.252 67.4448C91.1002 67.0674 91.8638 66.6947 91.8841 66.105C91.95 64.1881 91.7605 62.0141 91.9515 60.1225C90.7859 60.3723 90.9532 60.4754 90.0666 61.2475C89.8306 61.4529 89.6899 61.5658 89.394 61.5462C89.1445 61.1098 89.526 59.593 90.1233 59.3193Z" fill="var(--fill-0, #F7EFE8)"/>
<path id="Vector_28" d="M132.577 59.3155C133.198 59.3027 134.824 59.2431 135.317 59.4525C135.194 59.7545 134.717 60.6658 134.695 60.8737C134.497 62.7219 134.756 64.9589 134.589 66.782C135.462 66.7822 137.134 66.8552 137.763 66.134C138.003 65.8602 138.209 65.3245 138.6 65.1265C138.972 64.9377 138.922 64.8473 139.265 64.9304C139.408 65.2071 139.295 65.4922 139.219 65.8C138.965 66.5181 138.804 66.9313 138.463 67.6091C137.565 67.5785 132.512 67.7273 132.172 67.382C132.243 66.8657 132.905 66.669 132.838 66.2283C132.593 64.6107 133.424 60.8964 132.25 59.8807C132.151 59.5719 132.151 59.7009 132.248 59.3936L132.577 59.3155Z" fill="var(--fill-0, #F7EFE8)"/>
<path id="Vector_29" d="M108.223 59.3235C108.963 59.2998 110.682 59.2599 111.363 59.4098C111.405 59.5393 111.452 59.572 111.352 59.679C110.451 60.6436 110.707 61.417 110.67 62.6743C110.632 63.9869 110.756 65.438 110.631 66.7805C111.679 66.7914 112.824 66.8809 113.692 66.1599C114.121 65.802 114.766 64.8262 115.367 64.8744C115.488 65.1544 115.444 65.0879 115.339 65.4513L114.655 67.6172C113.344 67.5645 109.252 67.6848 108.333 67.5218L108.172 67.2626C108.305 66.8362 108.448 67.0481 108.864 66.6032C109.115 65.6602 108.776 62.0302 108.874 60.8173C108.957 59.7931 108.283 60.5114 108.223 59.3235Z" fill="var(--fill-0, #F7EFE8)"/>
<path id="Vector_30" d="M155.57 59.3247C156.158 59.3102 158.269 59.2096 158.708 59.4325C158.237 60.5067 158.005 60.8558 158.011 62.0706C158.018 63.6185 158.011 65.1431 158.096 66.6918C158.527 66.9578 158.78 67.0115 158.673 67.5475C157.999 67.5834 155.968 67.873 155.608 67.283C155.636 66.9449 155.949 66.7243 156.206 66.4833C156.302 64.454 156.307 62.4214 156.223 60.3916C155.82 59.9968 155.617 59.8738 155.57 59.3247Z" fill="var(--fill-0, #F7EFE8)"/>
<path id="Vector_31" d="M141.353 59.3285C142.217 59.2625 143.579 59.3093 144.489 59.3078C144.344 59.5235 143.894 60.1852 143.842 60.3963C143.469 61.9106 143.556 65.0617 143.724 66.6067C144.021 66.8793 144.214 66.9692 144.328 67.3204L144.197 67.5311C143.537 67.5733 141.502 67.9005 141.215 67.2475C141.272 66.9205 141.554 66.7364 141.809 66.5151C141.939 64.7867 141.905 62.3677 141.82 60.6121C141.804 60.2616 141.485 60.0353 141.213 59.7887C141.183 59.4724 141.153 59.5902 141.353 59.3285Z" fill="var(--fill-0, #F7EFE8)"/>
<path id="Vector_32" d="M117.447 50.1604C117.662 50.1466 117.912 50.1276 118.124 50.1547C118.394 50.1888 118.886 50.6367 119.177 50.4891C121.512 49.306 122.484 51.6052 120.397 52.6708C119.755 52.774 119.527 52.2969 119.135 52.1398C118.72 52.0751 118.196 52.8397 117.786 52.6773C116.365 52.1154 116.303 50.9433 117.447 50.1604Z" fill="var(--fill-0, #F7EFE8)"/>
<path id="Vector_33" d="M90.1424 50.1571C90.9424 50.1283 91.1165 50.4693 91.5975 50.4755C92.068 50.4817 93.6825 49.8071 93.9643 50.6651C94.3428 51.8164 93.6956 52.2995 92.8199 52.7275C92.6352 52.6836 91.523 52.1645 91.6948 52.1513C91.015 52.2036 90.8261 52.7357 90.0209 52.6502C89.3312 52.3328 89.0799 51.449 89.3369 50.7603C89.4803 50.3761 89.7841 50.305 90.1424 50.1571Z" fill="var(--fill-0, #F7EFE8)"/>
<path id="Vector_34" d="M98.4024 34.125C98.9005 34.2399 99.2158 34.3336 99.4067 34.8131C99.3715 35.1238 99.2991 35.3547 99.0788 35.557C97.5965 36.9191 96.8761 36.031 95.2762 35.7887C95.0671 35.757 94.8636 36.0797 94.7084 36.2642C94.4464 36.3666 93.8824 36.2972 93.6676 36.1052C93.1664 35.0763 94.8031 34.06 95.729 34.3363C96.3358 34.5173 96.9906 34.6451 97.6143 34.7566L98.4024 34.125Z" fill="var(--fill-0, #F7EFE8)"/>
<path id="Vector_35" d="M74.236 36.9543C74.9174 36.788 75.6059 37.2006 75.7809 37.8802C75.9558 38.5598 75.5523 39.2539 74.8753 39.4378C74.4296 39.5588 73.9532 39.4305 73.6284 39.1019C73.3036 38.7735 73.1805 38.2956 73.3063 37.8509C73.432 37.4063 73.7872 37.0637 74.236 36.9543Z" fill="var(--fill-0, #F7EFE8)"/>
<path id="Vector_36" d="M7.65625 16.3691C7.67892 15.8715 7.64877 15.3552 7.90497 14.94L8.06916 14.875C8.28256 15.101 8.39197 16.0366 8.40339 16.3566L8.38592 17.0446C8.31212 17.0776 8.03737 17.0878 7.9386 17.0952C7.67075 16.8536 7.73005 16.777 7.65625 16.3691Z" fill="var(--fill-0, #F7EFE8)"/>
<path id="Vector_37" d="M8.40488 16.3564C8.63624 17.2263 8.80935 18.3012 9.02186 19.0512C9.02121 19.346 9.04303 19.5422 8.91707 19.8092C8.81084 19.6801 8.97859 19.3262 8.88819 19.0679C8.70279 18.5383 8.26417 18.255 8.19531 17.6898C8.31302 17.4151 8.33171 17.339 8.38741 17.0445L8.40488 16.3564Z" fill="var(--fill-0, #F7EFE8)"/>
<path id="Vector_38" d="M14.0733 14.6626L14.5227 16.4729C14.339 16.31 13.7804 15.7962 13.6055 15.6784C13.7465 15.4982 13.8721 15.008 14.0733 14.6626Z" fill="var(--fill-0, #F7EFE8)"/>
</g>
</svg>
