<svg width="362" height="401" viewBox="0 0 362 401" fill="none" xmlns="http://www.w3.org/2000/svg">
<g opacity="0.1">
<path d="M265.38 363.535C275.159 348.138 282.909 324.013 290.102 307.36C298.064 288.929 307.52 274.431 313.309 254.912C325.926 214.572 321.402 171.289 298.881 135.298C271.193 91.05 229.052 73.2604 179.291 60.4196C165.892 56.9617 149.772 47.0448 134.708 43.1609C136.625 44.3919 137.15 44.2672 137.781 46.0867C137.52 46.5514 136.849 47.8662 136.514 48.1546C138.144 48.5132 138.574 48.585 140.242 48.5995C142.973 50.1426 143.432 52.8821 145.719 54.916C146.834 55.908 149.019 55.8483 149.439 56.6411C147.792 56.6831 146.839 56.1576 145.333 55.5306C153.911 61.6653 162.055 66.5445 171.2 73.452C195.23 91.9274 215.988 113.955 232.682 138.696C266.009 188.386 280.302 249.244 275.109 307.81C273.242 328.859 270.122 343.114 265.38 363.535Z" fill="#A77644"/>
<path d="M242.398 346.351C235.557 378.091 272.413 398.89 301.021 381.224C305.039 377.214 307.854 373.965 311.495 369.622C302.976 372.682 291.141 375.027 282.148 373.481C261.416 369.918 253.692 360.894 242.398 346.351Z" fill="#A77644"/>
<path d="M146.748 12.3713C130.686 10.0876 119.318 12.6512 109.077 25.8006C103.059 33.6809 100.558 43.5047 102.122 53.1266C103.027 58.8044 106.765 67.3592 111.553 70.7148C113.77 70.4741 116.556 70.9111 117.794 70.61C113.293 52.9031 117.102 36.2856 130.985 23.3678C136.022 18.6819 140.963 15.9775 146.748 12.3713Z" fill="#A77644"/>
</g>
</svg>
