<svg width="384" height="608" viewBox="0 0 384 608" fill="none" xmlns="http://www.w3.org/2000/svg">
<g clip-path="url(#clip0_372_2591)">
<path d="M93.1195 146.656C113.453 146.8 133.028 155.836 150.08 176.606C160.439 189.225 166.342 203.988 167.994 219.05C169.874 235.887 166.427 252.89 158.138 267.665C156.905 269.731 156.1 272.022 155.768 274.404C155.436 276.786 155.585 279.211 156.205 281.534C156.826 283.858 157.906 286.033 159.382 287.933C160.858 289.832 162.699 291.416 164.797 292.591C166.896 293.767 169.208 294.51 171.598 294.777C173.989 295.044 176.408 294.829 178.714 294.145C181.02 293.461 183.165 292.322 185.023 290.795C186.882 289.268 188.415 287.384 189.533 285.255C196.422 272.957 201.032 259.515 203.141 245.577C208.805 249.621 213.961 254.455 218.61 260.079C235.662 280.85 240.701 301.795 236.894 321.782C232.968 342.332 219.172 364.418 193.49 385.502C153.103 418.659 113.022 440.246 80.6374 449.507C46.4626 459.281 28.2363 453.704 21.3491 445.315C19.6358 443.228 18.695 441.089 21.0643 434.813C23.9365 427.191 30.0226 418.492 38.2315 406.931C45.134 397.212 53.7132 385.139 58.3293 372.918C63.5191 359.156 64.7432 342.151 52.1795 326.848C39.6157 311.544 22.6984 309.434 8.18862 311.844C-4.71064 314.003 -18.21 320.056 -29.0873 324.933C-42.0247 330.734 -51.7428 335.009 -59.7777 336.342C-66.3957 337.444 -68.3103 336.105 -70.0236 334.018C-76.9108 325.629 -78.8321 306.665 -62.5893 275.048C-47.1998 245.087 -18.2068 209.966 22.1662 176.82C47.848 155.736 72.1983 146.505 93.1195 146.656ZM201.985 203.86C198.099 185.469 189.839 168.285 177.904 153.763C154.981 125.842 125.745 110.881 93.3835 110.667C61.5641 110.404 29.2898 124.394 -0.676973 148.996C-43.7629 184.369 -76.401 223.135 -94.6219 258.611C-111.99 292.432 -119.515 330.47 -97.8478 356.861C-85.2841 372.164 -68.3668 374.275 -53.857 371.865C-40.5424 369.644 -26.5358 363.245 -15.4713 358.283C-3.10957 352.746 6.29605 348.657 14.1093 347.366C20.7273 346.265 22.642 347.604 24.3552 349.691C26.0684 351.778 27.0092 353.917 24.64 360.193C21.8523 367.606 15.9962 376.046 8.17139 387.082C1.15013 396.968 -7.83994 409.449 -12.6251 422.088C-17.8148 435.85 -19.039 452.855 -6.47522 468.158C15.1915 494.549 53.966 494.576 90.5218 484.127C128.856 473.15 173.233 448.711 216.333 413.327C246.3 388.725 266.296 359.779 272.245 328.531C278.337 296.748 269.368 265.172 246.434 237.236C234.098 222.211 218.753 211.008 201.985 203.86Z" fill="#F1E4D9"/>
</g>
<defs>
<clipPath id="clip0_372_2591">
<rect width="432" height="432" fill="white" transform="translate(109.891) rotate(50.6147)"/>
</clipPath>
</defs>
</svg>
